<svg xmlns="http://www.w3.org/2000/svg" xmlns:xlink="http://www.w3.org/1999/xlink" viewBox="0 0 267.48 279.39"><defs><style>.cls-1{fill:url(#linear-gradient);}.cls-2{fill:#1a1819;}.cls-3{fill:#c62127;}.cls-4,.cls-5{fill:#ed1f24;}.cls-5{stroke:#791214;stroke-miterlimit:10;stroke-width:9px;}</style><linearGradient id="linear-gradient" x1="133.74" y1="279.39" x2="133.74" gradientUnits="userSpaceOnUse"><stop offset="0" stop-color="#ce181e"/><stop offset="0.38" stop-color="#ce1a1e"/><stop offset="0.52" stop-color="#d0211d"/><stop offset="0.62" stop-color="#d32c1b"/><stop offset="0.7" stop-color="#d63d19"/><stop offset="0.77" stop-color="#db5317"/><stop offset="0.83" stop-color="#e16f13"/><stop offset="0.89" stop-color="#e98f0f"/><stop offset="0.94" stop-color="#f1b50b"/><stop offset="0.98" stop-color="#fade05"/><stop offset="1" stop-color="#fff203"/></linearGradient></defs><g id="Слой_2" data-name="Слой 2"><g id="Layer_4" data-name="Layer 4"><path class="cls-1" d="M143.17,279.39c-38.5,0-78-8.36-111.21-23.56l-2.49-1.14-1.57-2.26c0-.06-6.65-9.32-19.68-18.28L0,228.5l5.63-8.24c.87-1.26,18.7-27,46.76-41.62L26.54,155.11l2.57-8.84C47.91,81.46,58.27,45.75,134.78,3.06L140.26,0l5.14,3.61c33.22,23.36,57,47.23,72.8,73,13.32,21.77,21.24,45.31,24.9,74.06l.6,4.7-3.26,3.44c-6,6.29-17.76,16.43-26.74,23.93,31.67,17.85,46.35,36.54,47,37.43l6.74,8.72-9.33,5.86c-10.44,6.56-17.31,13.26-21.63,21.08l-1.36,2.47-2.46,1.39C210.24,272.39,178.44,279.39,143.17,279.39Z"/><path class="cls-2" d="M36.12,246.73s-7.33-10.57-22.23-20.82c0,0,22.94-33.53,56.82-44.12L37.89,151.91C57,86.26,65.65,53.09,139.65,11.79c68.12,47.89,87.41,92.12,93.53,140.12-9.83,10.37-37.53,32.71-37.53,32.71,39.53,18.82,57.18,41.64,57.18,41.64C240.48,234,232.67,242.09,227.77,251,184.09,275.71,101.68,276.73,36.12,246.73Z"/><path class="cls-3" d="M81.65,161.68c.93,3.3,5.47,5.29,10.06,5.82-2.14-2.83-5.27-3.79-6.53-6.88C83.08,159.73,81.42,159.44,81.65,161.68Z"/><path class="cls-3" d="M81.48,153.15c-2.73,0-5.27-.15-7.06-1.42a32.18,32.18,0,0,1-5.65-9.52A70.81,70.81,0,0,1,81.48,153.15Z"/><path class="cls-4" d="M179,171.91c1.76.05,9.83-5.27,8.82-6.35,1.87.95,1.77,2.18.71,3.53C186.38,171.86,182.86,172.21,179,171.91Z"/><path class="cls-4" d="M188.51,160.17a59.05,59.05,0,0,0,11.72-13.57c2.93-1.48,4.39.15,4.63,4.37C200.86,154.56,195.05,157.5,188.51,160.17Z"/><path class="cls-4" d="M190.36,174.85c11.64-10.23,20.76-20.23,23.76-27.64.79-16.58-2.65-31.71-12.82-48.95,12.09,11.5,20.41,33.59,20.06,46.47C219.59,155.15,198.83,172.21,190.36,174.85Z"/><path class="cls-3" d="M81,172.09c-7.08-2.93-25.24-12.86-33-26.3,2.65-18.13,14.11-33.21,25.42-48.35-7.33,18.07-15.71,37.21-16.24,48.35C59.18,153.89,71,163.09,81,172.09Z"/><path class="cls-5" d="M100,110.75c8.45,0,16,.75,20.82,3.88-1.66,2.72-4.36,5.44-10.24,8.12C104.71,119.77,101.28,115.73,100,110.75Z"/><path class="cls-5" d="M152.21,114.63a30.05,30.05,0,0,1,18.71-3.88c-.15,4-2.8,8-8.47,12C157,120.91,153.66,118.17,152.21,114.63Z"/><path class="cls-4" d="M100,110c8.46,0,16,.75,20.83,3.88-1.67,2.72-4.36,5.43-10.24,8.12C104.74,119.05,101.31,115,100,110Z"/><path class="cls-4" d="M152.24,114A30,30,0,0,1,171,110.15c-.15,4-2.8,8-8.47,12C157,120.3,153.69,117.57,152.24,114Z"/><path class="cls-3" d="M111,171.59c4.92,3.38,3.4,7.27,11.74,12.58a25.07,25.07,0,0,1,1.53,5.11C118.79,187,113.05,179.75,111,171.59Z"/><path class="cls-3" d="M110.62,169.63a36,36,0,0,1,16.62,19.88l3-2a51,51,0,0,0-6.48-13.34l5.57,4.73c-.86-4.84-8.25-10.65-14.72-15.1Z"/><path class="cls-3" d="M135.08,184.35l-4.81,3.12a118.36,118.36,0,0,0-6.46-13.31l5.55,4.7c-.57-4-7.39-9.58-14.72-15.1C123.91,163.8,132,174.17,135.08,184.35Z"/><path class="cls-4" d="M139.68,184.16a47.29,47.29,0,0,0,7.72,5.38c3.58-9.36,9.28-15.72,16.47-20a15.68,15.68,0,0,0-4.11-5.66C149.69,164.49,143.41,174.11,139.68,184.16Z"/><path class="cls-4" d="M151.81,184.73l-1.2,4.69c7-3.22,10.72-9.77,13.21-17.5C159.53,175.13,158.67,181.07,151.81,184.73Z"/><path class="cls-4" d="M116.21,160.5c7.66,1.12,15.08,4.38,21.5,17.73,3.27-5.62,4.34-11,21.16-18,11.41-11.13,20.68-21.79,21.94-30.65q-25.91,13.42-42.94.94c-10.44,6.34-23.77,7.48-41.94-.06C96.22,137.07,106.2,148.78,116.21,160.5Z"/><path class="cls-3" d="M137.87,130.56l-.16,47.67c-6-12.28-13.46-16.47-21.5-17.73-15.21-17.69-21-26.81-20.28-30Q120.16,140.85,137.87,130.56Z"/><path class="cls-4" d="M128.34,255.21c-1.08-3.23-1-4.45-.32-4.72,3.59,3.19,13.51,4,23.51,4.72q-24.15-7.29-37.17-23.3c1.32,9.36,4.36,17.89,14,23.3"/><path class="cls-4" d="M98,205.4c5.51,9.36,10.71,18.94,25,22.43-.47,1.36-1.69,2-3.24,2.31,6.43,6.83,20.21,5.69,33.36,5.22a61.27,61.27,0,0,1-16-5.54c4.1.2,7.72-.1,9.4-2.47C130.84,225.19,114.6,217,98,205.4Z"/><path class="cls-4" d="M83.84,184.34C99,190,107.6,196,150.77,200.26c-.56,2.84-11.08,2.74-22.51,2.47,5.62,2,16.87,3.05,26.42,2.75-3.41,2.12-10.24,3.38-18,4.39a139.32,139.32,0,0,0,41.09-4.94C144.8,222.84,101,211.33,83.84,184.34Z"/><path class="cls-3" d="M114.83,245.9c-14-22.49-29.31-42.27-47.89-55.28-6,3.26-13.95,8.63-22.75,15,6.33-1.51,11-1.64,12.9,1.55-8.46-3.37-18.78,2.65-30.06,13.56,11.44,3.46,19.38,9.52,24.63,17.57-4.92-.43-12.71-3.11-22.59-7.4C39.72,246,59.78,250.71,79,256.38c.24-.95-21-28.15-20.38-32.57,10.82,11.81,30.59,22.65,49.59,30.93-11.55-10.89-32.37-42.39-38.89-50.25C74.6,207.6,81.5,212.47,114.83,245.9Z"/><path class="cls-4" d="M240.19,231c-14.32,12.25-28.95,21.48-44.59,21l13.7-27.74a161.25,161.25,0,0,1-51.44,32.05s40.21-51.2,40.58-51.63-45.2,40.77-45.49,41.46c15.78-23.16,31.63-45,48.08-54.86a87.81,87.81,0,0,1,22.49,14.48c-3.58-.89-7.81-2.22-12.54,1.08,11.71-.55,22.09,3.57,30.38,14.95q-16.77,4.07-25.34,17.11C222,237.87,230.67,234.74,240.19,231Z"/><path class="cls-3" d="M133.89,198.29l.17,4.5c.26.61-5.08.25-5.8-.06l5.63,1.48v8.91c-22.58-1.6-37.42-12.19-50-28.78A162,162,0,0,0,133.89,198.29Z"/><path class="cls-3" d="M132.48,223.91,132,235.32c-5-.7-9.57-2-12.29-5.18a4.19,4.19,0,0,0,3.24-2.31c-11.58-2.89-19.47-11-25-22.43C109.09,213,120.43,219.75,132.48,223.91Z"/><path class="cls-3" d="M114.36,231.91c.51,11.07,6.19,18.32,14,24-1-2.82-1.35-4.89-.34-5.42a9.92,9.92,0,0,0,5.16,2.6l-.12-5.53C124.2,243.17,119.05,237.61,114.36,231.91Z"/><path class="cls-4" d="M101.65,158.73,81.42,114.5c14.35-16.08,34.89-30.85,57.7-45.15l52.65,45-11.53,45.06c8.24-9.41,18.94-46.12,18.94-46.12-20.62-17-33-39.85-40.44-50.16,12.95,10.47,25,19.38,34.75,24C171.42,68.82,152.43,51.42,153.31,40c11.73,8.09,25.12,22,39,37.7-12.07-20.59-21.37-42.51-52.95-53.75-28.65,9-40.12,32.8-53.9,54.52q20.25-25.17,40.66-39.24c-10.22,17.14-24.51,33-41.6,47.94,7.38-2.64,19.74-11.38,35.22-24l-45.38,51.1C79,119.79,89.9,152.17,101.65,158.73Z"/><path class="cls-3" d="M139.36,23.91C107.72,34,98.59,58.47,85.46,78.43c13.93-17.46,27.72-30,40.66-39.24-9.7,16.46-24,32.49-41.6,47.94,9.76-3.86,22.18-13.26,35.22-24l-45.38,51.1c6.5,6,16,38.06,27.29,44.47L81.42,114.5C96,99,116.45,84.08,139.12,69.35Z"/></g></g></svg>